<?xml version="1.0" encoding="utf-8" standalone="no"?>
<!DOCTYPE svg PUBLIC "-//W3C//DTD SVG 1.1//EN"
  "http://www.w3.org/Graphics/SVG/1.1/DTD/svg11.dtd">
<svg xmlns:xlink="http://www.w3.org/1999/xlink" width="394.160937pt" height="262.19625pt" viewBox="0 0 394.160937 262.19625" xmlns="http://www.w3.org/2000/svg" version="1.1">
 <metadata>
  <rdf:RDF xmlns:dc="http://purl.org/dc/elements/1.1/" xmlns:cc="http://creativecommons.org/ns#" xmlns:rdf="http://www.w3.org/1999/02/22-rdf-syntax-ns#">
   <cc:Work>
    <dc:type rdf:resource="http://purl.org/dc/dcmitype/StillImage"/>
    <dc:date>2022-06-26T18:21:35.354095</dc:date>
    <dc:format>image/svg+xml</dc:format>
    <dc:creator>
     <cc:Agent>
      <dc:title>Matplotlib v3.5.1, https://matplotlib.org/</dc:title>
     </cc:Agent>
    </dc:creator>
   </cc:Work>
  </rdf:RDF>
 </metadata>
 <defs>
  <style type="text/css">*{stroke-linejoin: round; stroke-linecap: butt}</style>
 </defs>
 <g id="figure_1">
  <g id="patch_1">
   <path d="M 0 262.19625 
L 394.160937 262.19625 
L 394.160937 0 
L 0 0 
z
" style="fill: #ffffff"/>
  </g>
  <g id="axes_1">
   <g id="patch_2">
    <path d="M 52.160938 224.64 
L 386.960938 224.64 
L 386.960938 7.2 
L 52.160938 7.2 
z
" style="fill: #ffffff"/>
   </g>
   <g id="matplotlib.axis_1">
    <g id="xtick_1">
     <g id="line2d_1">
      <defs>
       <path id="m0c8dc2f653" d="M 0 0 
L 0 3.5 
" style="stroke: #000000; stroke-width: 0.8"/>
      </defs>
      <g>
       <use xlink:href="#m0c8dc2f653" x="54.145918" y="224.64" style="stroke: #000000; stroke-width: 0.8"/>
      </g>
     </g>
     <g id="text_1">
      <!-- 0.0 -->
      <g transform="translate(46.194355 239.238438)scale(0.1 -0.1)">
       <defs>
        <path id="DejaVuSans-30" d="M 2034 4250 
Q 1547 4250 1301 3770 
Q 1056 3291 1056 2328 
Q 1056 1369 1301 889 
Q 1547 409 2034 409 
Q 2525 409 2770 889 
Q 3016 1369 3016 2328 
Q 3016 3291 2770 3770 
Q 2525 4250 2034 4250 
z
M 2034 4750 
Q 2819 4750 3233 4129 
Q 3647 3509 3647 2328 
Q 3647 1150 3233 529 
Q 2819 -91 2034 -91 
Q 1250 -91 836 529 
Q 422 1150 422 2328 
Q 422 3509 836 4129 
Q 1250 4750 2034 4750 
z
" transform="scale(0.015625)"/>
        <path id="DejaVuSans-2e" d="M 684 794 
L 1344 794 
L 1344 0 
L 684 0 
L 684 794 
z
" transform="scale(0.015625)"/>
       </defs>
       <use xlink:href="#DejaVuSans-30"/>
       <use xlink:href="#DejaVuSans-2e" x="63.623047"/>
       <use xlink:href="#DejaVuSans-30" x="95.410156"/>
      </g>
     </g>
    </g>
    <g id="xtick_2">
     <g id="line2d_2">
      <g>
       <use xlink:href="#m0c8dc2f653" x="98.25659" y="224.64" style="stroke: #000000; stroke-width: 0.8"/>
      </g>
     </g>
     <g id="text_2">
      <!-- 0.5 -->
      <g transform="translate(90.305027 239.238438)scale(0.1 -0.1)">
       <defs>
        <path id="DejaVuSans-35" d="M 691 4666 
L 3169 4666 
L 3169 4134 
L 1269 4134 
L 1269 2991 
Q 1406 3038 1543 3061 
Q 1681 3084 1819 3084 
Q 2600 3084 3056 2656 
Q 3513 2228 3513 1497 
Q 3513 744 3044 326 
Q 2575 -91 1722 -91 
Q 1428 -91 1123 -41 
Q 819 9 494 109 
L 494 744 
Q 775 591 1075 516 
Q 1375 441 1709 441 
Q 2250 441 2565 725 
Q 2881 1009 2881 1497 
Q 2881 1984 2565 2268 
Q 2250 2553 1709 2553 
Q 1456 2553 1204 2497 
Q 953 2441 691 2322 
L 691 4666 
z
" transform="scale(0.015625)"/>
       </defs>
       <use xlink:href="#DejaVuSans-30"/>
       <use xlink:href="#DejaVuSans-2e" x="63.623047"/>
       <use xlink:href="#DejaVuSans-35" x="95.410156"/>
      </g>
     </g>
    </g>
    <g id="xtick_3">
     <g id="line2d_3">
      <g>
       <use xlink:href="#m0c8dc2f653" x="142.367262" y="224.64" style="stroke: #000000; stroke-width: 0.8"/>
      </g>
     </g>
     <g id="text_3">
      <!-- 1.0 -->
      <g transform="translate(134.415699 239.238438)scale(0.1 -0.1)">
       <defs>
        <path id="DejaVuSans-31" d="M 794 531 
L 1825 531 
L 1825 4091 
L 703 3866 
L 703 4441 
L 1819 4666 
L 2450 4666 
L 2450 531 
L 3481 531 
L 3481 0 
L 794 0 
L 794 531 
z
" transform="scale(0.015625)"/>
       </defs>
       <use xlink:href="#DejaVuSans-31"/>
       <use xlink:href="#DejaVuSans-2e" x="63.623047"/>
       <use xlink:href="#DejaVuSans-30" x="95.410156"/>
      </g>
     </g>
    </g>
    <g id="xtick_4">
     <g id="line2d_4">
      <g>
       <use xlink:href="#m0c8dc2f653" x="186.477934" y="224.64" style="stroke: #000000; stroke-width: 0.8"/>
      </g>
     </g>
     <g id="text_4">
      <!-- 1.5 -->
      <g transform="translate(178.526371 239.238438)scale(0.1 -0.1)">
       <use xlink:href="#DejaVuSans-31"/>
       <use xlink:href="#DejaVuSans-2e" x="63.623047"/>
       <use xlink:href="#DejaVuSans-35" x="95.410156"/>
      </g>
     </g>
    </g>
    <g id="xtick_5">
     <g id="line2d_5">
      <g>
       <use xlink:href="#m0c8dc2f653" x="230.588605" y="224.64" style="stroke: #000000; stroke-width: 0.8"/>
      </g>
     </g>
     <g id="text_5">
      <!-- 2.0 -->
      <g transform="translate(222.637043 239.238438)scale(0.1 -0.1)">
       <defs>
        <path id="DejaVuSans-32" d="M 1228 531 
L 3431 531 
L 3431 0 
L 469 0 
L 469 531 
Q 828 903 1448 1529 
Q 2069 2156 2228 2338 
Q 2531 2678 2651 2914 
Q 2772 3150 2772 3378 
Q 2772 3750 2511 3984 
Q 2250 4219 1831 4219 
Q 1534 4219 1204 4116 
Q 875 4013 500 3803 
L 500 4441 
Q 881 4594 1212 4672 
Q 1544 4750 1819 4750 
Q 2544 4750 2975 4387 
Q 3406 4025 3406 3419 
Q 3406 3131 3298 2873 
Q 3191 2616 2906 2266 
Q 2828 2175 2409 1742 
Q 1991 1309 1228 531 
z
" transform="scale(0.015625)"/>
       </defs>
       <use xlink:href="#DejaVuSans-32"/>
       <use xlink:href="#DejaVuSans-2e" x="63.623047"/>
       <use xlink:href="#DejaVuSans-30" x="95.410156"/>
      </g>
     </g>
    </g>
    <g id="xtick_6">
     <g id="line2d_6">
      <g>
       <use xlink:href="#m0c8dc2f653" x="274.699277" y="224.64" style="stroke: #000000; stroke-width: 0.8"/>
      </g>
     </g>
     <g id="text_6">
      <!-- 2.5 -->
      <g transform="translate(266.747715 239.238438)scale(0.1 -0.1)">
       <use xlink:href="#DejaVuSans-32"/>
       <use xlink:href="#DejaVuSans-2e" x="63.623047"/>
       <use xlink:href="#DejaVuSans-35" x="95.410156"/>
      </g>
     </g>
    </g>
    <g id="xtick_7">
     <g id="line2d_7">
      <g>
       <use xlink:href="#m0c8dc2f653" x="318.809949" y="224.64" style="stroke: #000000; stroke-width: 0.8"/>
      </g>
     </g>
     <g id="text_7">
      <!-- 3.0 -->
      <g transform="translate(310.858387 239.238438)scale(0.1 -0.1)">
       <defs>
        <path id="DejaVuSans-33" d="M 2597 2516 
Q 3050 2419 3304 2112 
Q 3559 1806 3559 1356 
Q 3559 666 3084 287 
Q 2609 -91 1734 -91 
Q 1441 -91 1130 -33 
Q 819 25 488 141 
L 488 750 
Q 750 597 1062 519 
Q 1375 441 1716 441 
Q 2309 441 2620 675 
Q 2931 909 2931 1356 
Q 2931 1769 2642 2001 
Q 2353 2234 1838 2234 
L 1294 2234 
L 1294 2753 
L 1863 2753 
Q 2328 2753 2575 2939 
Q 2822 3125 2822 3475 
Q 2822 3834 2567 4026 
Q 2313 4219 1838 4219 
Q 1578 4219 1281 4162 
Q 984 4106 628 3988 
L 628 4550 
Q 988 4650 1302 4700 
Q 1616 4750 1894 4750 
Q 2613 4750 3031 4423 
Q 3450 4097 3450 3541 
Q 3450 3153 3228 2886 
Q 3006 2619 2597 2516 
z
" transform="scale(0.015625)"/>
       </defs>
       <use xlink:href="#DejaVuSans-33"/>
       <use xlink:href="#DejaVuSans-2e" x="63.623047"/>
       <use xlink:href="#DejaVuSans-30" x="95.410156"/>
      </g>
     </g>
    </g>
    <g id="xtick_8">
     <g id="line2d_8">
      <g>
       <use xlink:href="#m0c8dc2f653" x="362.920621" y="224.64" style="stroke: #000000; stroke-width: 0.8"/>
      </g>
     </g>
     <g id="text_8">
      <!-- 3.5 -->
      <g transform="translate(354.969059 239.238438)scale(0.1 -0.1)">
       <use xlink:href="#DejaVuSans-33"/>
       <use xlink:href="#DejaVuSans-2e" x="63.623047"/>
       <use xlink:href="#DejaVuSans-35" x="95.410156"/>
      </g>
     </g>
    </g>
    <g id="text_9">
     <!-- Time (1/J) -->
     <g transform="translate(195.496094 252.916563)scale(0.1 -0.1)">
      <defs>
       <path id="DejaVuSans-54" d="M -19 4666 
L 3928 4666 
L 3928 4134 
L 2272 4134 
L 2272 0 
L 1638 0 
L 1638 4134 
L -19 4134 
L -19 4666 
z
" transform="scale(0.015625)"/>
       <path id="DejaVuSans-69" d="M 603 3500 
L 1178 3500 
L 1178 0 
L 603 0 
L 603 3500 
z
M 603 4863 
L 1178 4863 
L 1178 4134 
L 603 4134 
L 603 4863 
z
" transform="scale(0.015625)"/>
       <path id="DejaVuSans-6d" d="M 3328 2828 
Q 3544 3216 3844 3400 
Q 4144 3584 4550 3584 
Q 5097 3584 5394 3201 
Q 5691 2819 5691 2113 
L 5691 0 
L 5113 0 
L 5113 2094 
Q 5113 2597 4934 2840 
Q 4756 3084 4391 3084 
Q 3944 3084 3684 2787 
Q 3425 2491 3425 1978 
L 3425 0 
L 2847 0 
L 2847 2094 
Q 2847 2600 2669 2842 
Q 2491 3084 2119 3084 
Q 1678 3084 1418 2786 
Q 1159 2488 1159 1978 
L 1159 0 
L 581 0 
L 581 3500 
L 1159 3500 
L 1159 2956 
Q 1356 3278 1631 3431 
Q 1906 3584 2284 3584 
Q 2666 3584 2933 3390 
Q 3200 3197 3328 2828 
z
" transform="scale(0.015625)"/>
       <path id="DejaVuSans-65" d="M 3597 1894 
L 3597 1613 
L 953 1613 
Q 991 1019 1311 708 
Q 1631 397 2203 397 
Q 2534 397 2845 478 
Q 3156 559 3463 722 
L 3463 178 
Q 3153 47 2828 -22 
Q 2503 -91 2169 -91 
Q 1331 -91 842 396 
Q 353 884 353 1716 
Q 353 2575 817 3079 
Q 1281 3584 2069 3584 
Q 2775 3584 3186 3129 
Q 3597 2675 3597 1894 
z
M 3022 2063 
Q 3016 2534 2758 2815 
Q 2500 3097 2075 3097 
Q 1594 3097 1305 2825 
Q 1016 2553 972 2059 
L 3022 2063 
z
" transform="scale(0.015625)"/>
       <path id="DejaVuSans-20" transform="scale(0.015625)"/>
       <path id="DejaVuSans-28" d="M 1984 4856 
Q 1566 4138 1362 3434 
Q 1159 2731 1159 2009 
Q 1159 1288 1364 580 
Q 1569 -128 1984 -844 
L 1484 -844 
Q 1016 -109 783 600 
Q 550 1309 550 2009 
Q 550 2706 781 3412 
Q 1013 4119 1484 4856 
L 1984 4856 
z
" transform="scale(0.015625)"/>
       <path id="DejaVuSans-2f" d="M 1625 4666 
L 2156 4666 
L 531 -594 
L 0 -594 
L 1625 4666 
z
" transform="scale(0.015625)"/>
       <path id="DejaVuSans-4a" d="M 628 4666 
L 1259 4666 
L 1259 325 
Q 1259 -519 939 -900 
Q 619 -1281 -91 -1281 
L -331 -1281 
L -331 -750 
L -134 -750 
Q 284 -750 456 -515 
Q 628 -281 628 325 
L 628 4666 
z
" transform="scale(0.015625)"/>
       <path id="DejaVuSans-29" d="M 513 4856 
L 1013 4856 
Q 1481 4119 1714 3412 
Q 1947 2706 1947 2009 
Q 1947 1309 1714 600 
Q 1481 -109 1013 -844 
L 513 -844 
Q 928 -128 1133 580 
Q 1338 1288 1338 2009 
Q 1338 2731 1133 3434 
Q 928 4138 513 4856 
z
" transform="scale(0.015625)"/>
      </defs>
      <use xlink:href="#DejaVuSans-54"/>
      <use xlink:href="#DejaVuSans-69" x="57.958984"/>
      <use xlink:href="#DejaVuSans-6d" x="85.742188"/>
      <use xlink:href="#DejaVuSans-65" x="183.154297"/>
      <use xlink:href="#DejaVuSans-20" x="244.677734"/>
      <use xlink:href="#DejaVuSans-28" x="276.464844"/>
      <use xlink:href="#DejaVuSans-31" x="315.478516"/>
      <use xlink:href="#DejaVuSans-2f" x="379.101562"/>
      <use xlink:href="#DejaVuSans-4a" x="412.792969"/>
      <use xlink:href="#DejaVuSans-29" x="442.285156"/>
     </g>
    </g>
   </g>
   <g id="matplotlib.axis_2">
    <g id="ytick_1">
     <g id="line2d_9">
      <defs>
       <path id="m6f575f2bfe" d="M 0 0 
L -3.5 0 
" style="stroke: #000000; stroke-width: 0.8"/>
      </defs>
      <g>
       <use xlink:href="#m6f575f2bfe" x="52.160938" y="220.868468" style="stroke: #000000; stroke-width: 0.8"/>
      </g>
     </g>
     <g id="text_10">
      <!-- −1.0 -->
      <g transform="translate(20.878125 224.667687)scale(0.1 -0.1)">
       <defs>
        <path id="DejaVuSans-2212" d="M 678 2272 
L 4684 2272 
L 4684 1741 
L 678 1741 
L 678 2272 
z
" transform="scale(0.015625)"/>
       </defs>
       <use xlink:href="#DejaVuSans-2212"/>
       <use xlink:href="#DejaVuSans-31" x="83.789062"/>
       <use xlink:href="#DejaVuSans-2e" x="147.412109"/>
       <use xlink:href="#DejaVuSans-30" x="179.199219"/>
      </g>
     </g>
    </g>
    <g id="ytick_2">
     <g id="line2d_10">
      <g>
       <use xlink:href="#m6f575f2bfe" x="52.160938" y="187.333631" style="stroke: #000000; stroke-width: 0.8"/>
      </g>
     </g>
     <g id="text_11">
      <!-- −0.8 -->
      <g transform="translate(20.878125 191.13285)scale(0.1 -0.1)">
       <defs>
        <path id="DejaVuSans-38" d="M 2034 2216 
Q 1584 2216 1326 1975 
Q 1069 1734 1069 1313 
Q 1069 891 1326 650 
Q 1584 409 2034 409 
Q 2484 409 2743 651 
Q 3003 894 3003 1313 
Q 3003 1734 2745 1975 
Q 2488 2216 2034 2216 
z
M 1403 2484 
Q 997 2584 770 2862 
Q 544 3141 544 3541 
Q 544 4100 942 4425 
Q 1341 4750 2034 4750 
Q 2731 4750 3128 4425 
Q 3525 4100 3525 3541 
Q 3525 3141 3298 2862 
Q 3072 2584 2669 2484 
Q 3125 2378 3379 2068 
Q 3634 1759 3634 1313 
Q 3634 634 3220 271 
Q 2806 -91 2034 -91 
Q 1263 -91 848 271 
Q 434 634 434 1313 
Q 434 1759 690 2068 
Q 947 2378 1403 2484 
z
M 1172 3481 
Q 1172 3119 1398 2916 
Q 1625 2713 2034 2713 
Q 2441 2713 2670 2916 
Q 2900 3119 2900 3481 
Q 2900 3844 2670 4047 
Q 2441 4250 2034 4250 
Q 1625 4250 1398 4047 
Q 1172 3844 1172 3481 
z
" transform="scale(0.015625)"/>
       </defs>
       <use xlink:href="#DejaVuSans-2212"/>
       <use xlink:href="#DejaVuSans-30" x="83.789062"/>
       <use xlink:href="#DejaVuSans-2e" x="147.412109"/>
       <use xlink:href="#DejaVuSans-38" x="179.199219"/>
      </g>
     </g>
    </g>
    <g id="ytick_3">
     <g id="line2d_11">
      <g>
       <use xlink:href="#m6f575f2bfe" x="52.160938" y="153.798793" style="stroke: #000000; stroke-width: 0.8"/>
      </g>
     </g>
     <g id="text_12">
      <!-- −0.6 -->
      <g transform="translate(20.878125 157.598012)scale(0.1 -0.1)">
       <defs>
        <path id="DejaVuSans-36" d="M 2113 2584 
Q 1688 2584 1439 2293 
Q 1191 2003 1191 1497 
Q 1191 994 1439 701 
Q 1688 409 2113 409 
Q 2538 409 2786 701 
Q 3034 994 3034 1497 
Q 3034 2003 2786 2293 
Q 2538 2584 2113 2584 
z
M 3366 4563 
L 3366 3988 
Q 3128 4100 2886 4159 
Q 2644 4219 2406 4219 
Q 1781 4219 1451 3797 
Q 1122 3375 1075 2522 
Q 1259 2794 1537 2939 
Q 1816 3084 2150 3084 
Q 2853 3084 3261 2657 
Q 3669 2231 3669 1497 
Q 3669 778 3244 343 
Q 2819 -91 2113 -91 
Q 1303 -91 875 529 
Q 447 1150 447 2328 
Q 447 3434 972 4092 
Q 1497 4750 2381 4750 
Q 2619 4750 2861 4703 
Q 3103 4656 3366 4563 
z
" transform="scale(0.015625)"/>
       </defs>
       <use xlink:href="#DejaVuSans-2212"/>
       <use xlink:href="#DejaVuSans-30" x="83.789062"/>
       <use xlink:href="#DejaVuSans-2e" x="147.412109"/>
       <use xlink:href="#DejaVuSans-36" x="179.199219"/>
      </g>
     </g>
    </g>
    <g id="ytick_4">
     <g id="line2d_12">
      <g>
       <use xlink:href="#m6f575f2bfe" x="52.160938" y="120.263956" style="stroke: #000000; stroke-width: 0.8"/>
      </g>
     </g>
     <g id="text_13">
      <!-- −0.4 -->
      <g transform="translate(20.878125 124.063175)scale(0.1 -0.1)">
       <defs>
        <path id="DejaVuSans-34" d="M 2419 4116 
L 825 1625 
L 2419 1625 
L 2419 4116 
z
M 2253 4666 
L 3047 4666 
L 3047 1625 
L 3713 1625 
L 3713 1100 
L 3047 1100 
L 3047 0 
L 2419 0 
L 2419 1100 
L 313 1100 
L 313 1709 
L 2253 4666 
z
" transform="scale(0.015625)"/>
       </defs>
       <use xlink:href="#DejaVuSans-2212"/>
       <use xlink:href="#DejaVuSans-30" x="83.789062"/>
       <use xlink:href="#DejaVuSans-2e" x="147.412109"/>
       <use xlink:href="#DejaVuSans-34" x="179.199219"/>
      </g>
     </g>
    </g>
    <g id="ytick_5">
     <g id="line2d_13">
      <g>
       <use xlink:href="#m6f575f2bfe" x="52.160938" y="86.729118" style="stroke: #000000; stroke-width: 0.8"/>
      </g>
     </g>
     <g id="text_14">
      <!-- −0.2 -->
      <g transform="translate(20.878125 90.528337)scale(0.1 -0.1)">
       <use xlink:href="#DejaVuSans-2212"/>
       <use xlink:href="#DejaVuSans-30" x="83.789062"/>
       <use xlink:href="#DejaVuSans-2e" x="147.412109"/>
       <use xlink:href="#DejaVuSans-32" x="179.199219"/>
      </g>
     </g>
    </g>
    <g id="ytick_6">
     <g id="line2d_14">
      <g>
       <use xlink:href="#m6f575f2bfe" x="52.160938" y="53.194281" style="stroke: #000000; stroke-width: 0.8"/>
      </g>
     </g>
     <g id="text_15">
      <!-- 0.0 -->
      <g transform="translate(29.257812 56.9935)scale(0.1 -0.1)">
       <use xlink:href="#DejaVuSans-30"/>
       <use xlink:href="#DejaVuSans-2e" x="63.623047"/>
       <use xlink:href="#DejaVuSans-30" x="95.410156"/>
      </g>
     </g>
    </g>
    <g id="ytick_7">
     <g id="line2d_15">
      <g>
       <use xlink:href="#m6f575f2bfe" x="52.160938" y="19.659444" style="stroke: #000000; stroke-width: 0.8"/>
      </g>
     </g>
     <g id="text_16">
      <!-- 0.2 -->
      <g transform="translate(29.257812 23.458662)scale(0.1 -0.1)">
       <use xlink:href="#DejaVuSans-30"/>
       <use xlink:href="#DejaVuSans-2e" x="63.623047"/>
       <use xlink:href="#DejaVuSans-32" x="95.410156"/>
      </g>
     </g>
    </g>
    <g id="text_17">
     <!-- $\mathcal{I}$ -->
     <g transform="translate(14.798438 118.82)rotate(-90)scale(0.1 -0.1)">
      <defs>
       <path id="STIXNonUnicode-Italic-e235" d="M 3782 4237 
L 3744 4083 
Q 3482 4083 3347 4067 
Q 3213 4051 3069 3977 
Q 2925 3904 2838 3753 
Q 2752 3603 2675 3334 
L 1920 710 
Q 1901 634 1901 557 
Q 1901 352 2208 352 
Q 2790 352 3283 819 
L 3398 698 
Q 3008 320 2566 160 
Q 2125 0 1549 0 
L 243 0 
L 282 154 
Q 467 154 556 160 
Q 646 166 777 201 
Q 909 237 982 310 
Q 1056 384 1139 521 
Q 1222 659 1280 870 
L 1946 3187 
Q 2061 3590 2061 3674 
Q 2061 3878 1754 3878 
Q 1523 3878 1203 3750 
Q 883 3622 678 3411 
L 570 3533 
Q 947 3904 1385 4070 
Q 1824 4237 2579 4237 
L 3782 4237 
z
" transform="scale(0.015625)"/>
      </defs>
      <use xlink:href="#STIXNonUnicode-Italic-e235" transform="translate(0 0.796875)"/>
     </g>
    </g>
   </g>
   <g id="line2d_16">
    <path d="M 67.379119 175.972285 
L 80.612321 81.634227 
L 93.845522 17.083636 
L 107.078724 20.533926 
L 120.311926 55.614291 
L 133.545127 65.684418 
L 146.778329 45.081718 
L 160.01153 33.111657 
L 173.244732 51.45287 
L 186.477934 78.002283 
L 199.711135 82.111961 
L 212.944337 62.830371 
L 226.177538 43.203579 
L 239.41074 38.422474 
L 252.643941 41.641314 
L 265.877143 39.058695 
L 279.110345 29.46912 
L 292.343546 24.272904 
L 305.576748 31.058439 
L 318.809949 43.004466 
L 332.043151 47.342775 
L 345.276353 40.669116 
L 358.509554 31.353737 
L 371.742756 28.266966 
" clip-path="url(#pa0ed3c1506)" style="fill: none; stroke-dasharray: 5.55,2.4; stroke-dashoffset: 0; stroke: #1f77b4; stroke-width: 1.5"/>
    <defs>
     <path id="m94e05660d7" d="M 0 3 
C 0.795609 3 1.55874 2.683901 2.12132 2.12132 
C 2.683901 1.55874 3 0.795609 3 0 
C 3 -0.795609 2.683901 -1.55874 2.12132 -2.12132 
C 1.55874 -2.683901 0.795609 -3 0 -3 
C -0.795609 -3 -1.55874 -2.683901 -2.12132 -2.12132 
C -2.683901 -1.55874 -3 -0.795609 -3 0 
C -3 0.795609 -2.683901 1.55874 -2.12132 2.12132 
C -1.55874 2.683901 -0.795609 3 0 3 
z
" style="stroke: #1f77b4"/>
    </defs>
    <g clip-path="url(#pa0ed3c1506)">
     <use xlink:href="#m94e05660d7" x="67.379119" y="175.972285" style="fill: #1f77b4; stroke: #1f77b4"/>
     <use xlink:href="#m94e05660d7" x="80.612321" y="81.634227" style="fill: #1f77b4; stroke: #1f77b4"/>
     <use xlink:href="#m94e05660d7" x="93.845522" y="17.083636" style="fill: #1f77b4; stroke: #1f77b4"/>
     <use xlink:href="#m94e05660d7" x="107.078724" y="20.533926" style="fill: #1f77b4; stroke: #1f77b4"/>
     <use xlink:href="#m94e05660d7" x="120.311926" y="55.614291" style="fill: #1f77b4; stroke: #1f77b4"/>
     <use xlink:href="#m94e05660d7" x="133.545127" y="65.684418" style="fill: #1f77b4; stroke: #1f77b4"/>
     <use xlink:href="#m94e05660d7" x="146.778329" y="45.081718" style="fill: #1f77b4; stroke: #1f77b4"/>
     <use xlink:href="#m94e05660d7" x="160.01153" y="33.111657" style="fill: #1f77b4; stroke: #1f77b4"/>
     <use xlink:href="#m94e05660d7" x="173.244732" y="51.45287" style="fill: #1f77b4; stroke: #1f77b4"/>
     <use xlink:href="#m94e05660d7" x="186.477934" y="78.002283" style="fill: #1f77b4; stroke: #1f77b4"/>
     <use xlink:href="#m94e05660d7" x="199.711135" y="82.111961" style="fill: #1f77b4; stroke: #1f77b4"/>
     <use xlink:href="#m94e05660d7" x="212.944337" y="62.830371" style="fill: #1f77b4; stroke: #1f77b4"/>
     <use xlink:href="#m94e05660d7" x="226.177538" y="43.203579" style="fill: #1f77b4; stroke: #1f77b4"/>
     <use xlink:href="#m94e05660d7" x="239.41074" y="38.422474" style="fill: #1f77b4; stroke: #1f77b4"/>
     <use xlink:href="#m94e05660d7" x="252.643941" y="41.641314" style="fill: #1f77b4; stroke: #1f77b4"/>
     <use xlink:href="#m94e05660d7" x="265.877143" y="39.058695" style="fill: #1f77b4; stroke: #1f77b4"/>
     <use xlink:href="#m94e05660d7" x="279.110345" y="29.46912" style="fill: #1f77b4; stroke: #1f77b4"/>
     <use xlink:href="#m94e05660d7" x="292.343546" y="24.272904" style="fill: #1f77b4; stroke: #1f77b4"/>
     <use xlink:href="#m94e05660d7" x="305.576748" y="31.058439" style="fill: #1f77b4; stroke: #1f77b4"/>
     <use xlink:href="#m94e05660d7" x="318.809949" y="43.004466" style="fill: #1f77b4; stroke: #1f77b4"/>
     <use xlink:href="#m94e05660d7" x="332.043151" y="47.342775" style="fill: #1f77b4; stroke: #1f77b4"/>
     <use xlink:href="#m94e05660d7" x="345.276353" y="40.669116" style="fill: #1f77b4; stroke: #1f77b4"/>
     <use xlink:href="#m94e05660d7" x="358.509554" y="31.353737" style="fill: #1f77b4; stroke: #1f77b4"/>
     <use xlink:href="#m94e05660d7" x="371.742756" y="28.266966" style="fill: #1f77b4; stroke: #1f77b4"/>
    </g>
   </g>
   <g id="line2d_17">
    <path d="M 67.379119 175.972264 
L 80.612321 110.424177 
L 93.845522 114.49023 
L 107.078724 155.391534 
L 120.311926 151.27349 
L 133.545127 113.068883 
L 146.778329 106.158614 
L 160.01153 129.474672 
L 173.244732 131.9982 
L 186.477934 109.760175 
L 199.711135 100.166063 
L 212.944337 110.393728 
L 226.177538 110.325689 
L 239.41074 88.652401 
L 252.643941 72.205498 
L 265.877143 80.09836 
L 279.110345 94.411772 
L 292.343546 86.083927 
L 305.576748 59.6392 
L 318.809949 56.328241 
L 332.043151 83.732031 
L 345.276353 99.369934 
L 358.509554 91.85615 
L 371.742756 91.427212 
" clip-path="url(#pa0ed3c1506)" style="fill: none; stroke-dasharray: 5.55,2.4; stroke-dashoffset: 0; stroke: #ff7f0e; stroke-width: 1.5"/>
    <defs>
     <path id="m8c683bdcda" d="M 0 3 
C 0.795609 3 1.55874 2.683901 2.12132 2.12132 
C 2.683901 1.55874 3 0.795609 3 0 
C 3 -0.795609 2.683901 -1.55874 2.12132 -2.12132 
C 1.55874 -2.683901 0.795609 -3 0 -3 
C -0.795609 -3 -1.55874 -2.683901 -2.12132 -2.12132 
C -2.683901 -1.55874 -3 -0.795609 -3 0 
C -3 0.795609 -2.683901 1.55874 -2.12132 2.12132 
C -1.55874 2.683901 -0.795609 3 0 3 
z
" style="stroke: #ff7f0e"/>
    </defs>
    <g clip-path="url(#pa0ed3c1506)">
     <use xlink:href="#m8c683bdcda" x="67.379119" y="175.972264" style="fill: #ff7f0e; stroke: #ff7f0e"/>
     <use xlink:href="#m8c683bdcda" x="80.612321" y="110.424177" style="fill: #ff7f0e; stroke: #ff7f0e"/>
     <use xlink:href="#m8c683bdcda" x="93.845522" y="114.49023" style="fill: #ff7f0e; stroke: #ff7f0e"/>
     <use xlink:href="#m8c683bdcda" x="107.078724" y="155.391534" style="fill: #ff7f0e; stroke: #ff7f0e"/>
     <use xlink:href="#m8c683bdcda" x="120.311926" y="151.27349" style="fill: #ff7f0e; stroke: #ff7f0e"/>
     <use xlink:href="#m8c683bdcda" x="133.545127" y="113.068883" style="fill: #ff7f0e; stroke: #ff7f0e"/>
     <use xlink:href="#m8c683bdcda" x="146.778329" y="106.158614" style="fill: #ff7f0e; stroke: #ff7f0e"/>
     <use xlink:href="#m8c683bdcda" x="160.01153" y="129.474672" style="fill: #ff7f0e; stroke: #ff7f0e"/>
     <use xlink:href="#m8c683bdcda" x="173.244732" y="131.9982" style="fill: #ff7f0e; stroke: #ff7f0e"/>
     <use xlink:href="#m8c683bdcda" x="186.477934" y="109.760175" style="fill: #ff7f0e; stroke: #ff7f0e"/>
     <use xlink:href="#m8c683bdcda" x="199.711135" y="100.166063" style="fill: #ff7f0e; stroke: #ff7f0e"/>
     <use xlink:href="#m8c683bdcda" x="212.944337" y="110.393728" style="fill: #ff7f0e; stroke: #ff7f0e"/>
     <use xlink:href="#m8c683bdcda" x="226.177538" y="110.325689" style="fill: #ff7f0e; stroke: #ff7f0e"/>
     <use xlink:href="#m8c683bdcda" x="239.41074" y="88.652401" style="fill: #ff7f0e; stroke: #ff7f0e"/>
     <use xlink:href="#m8c683bdcda" x="252.643941" y="72.205498" style="fill: #ff7f0e; stroke: #ff7f0e"/>
     <use xlink:href="#m8c683bdcda" x="265.877143" y="80.09836" style="fill: #ff7f0e; stroke: #ff7f0e"/>
     <use xlink:href="#m8c683bdcda" x="279.110345" y="94.411772" style="fill: #ff7f0e; stroke: #ff7f0e"/>
     <use xlink:href="#m8c683bdcda" x="292.343546" y="86.083927" style="fill: #ff7f0e; stroke: #ff7f0e"/>
     <use xlink:href="#m8c683bdcda" x="305.576748" y="59.6392" style="fill: #ff7f0e; stroke: #ff7f0e"/>
     <use xlink:href="#m8c683bdcda" x="318.809949" y="56.328241" style="fill: #ff7f0e; stroke: #ff7f0e"/>
     <use xlink:href="#m8c683bdcda" x="332.043151" y="83.732031" style="fill: #ff7f0e; stroke: #ff7f0e"/>
     <use xlink:href="#m8c683bdcda" x="345.276353" y="99.369934" style="fill: #ff7f0e; stroke: #ff7f0e"/>
     <use xlink:href="#m8c683bdcda" x="358.509554" y="91.85615" style="fill: #ff7f0e; stroke: #ff7f0e"/>
     <use xlink:href="#m8c683bdcda" x="371.742756" y="91.427212" style="fill: #ff7f0e; stroke: #ff7f0e"/>
    </g>
   </g>
   <g id="line2d_18">
    <path d="M 67.379119 175.972173 
L 80.612321 176.244605 
L 93.845522 208.909801 
L 107.078724 177.531466 
L 120.311926 186.536673 
L 133.545127 197.926281 
L 146.778329 179.317581 
L 160.01153 184.063097 
L 173.244732 187.67073 
L 186.477934 192.03332 
L 199.711135 179.767378 
L 212.944337 177.39316 
L 226.177538 201.399002 
L 239.41074 177.875559 
L 252.643941 175.851819 
L 265.877143 197.481854 
L 279.110345 168.269889 
L 292.343546 179.808329 
L 305.576748 194.152921 
L 318.809949 168.230062 
L 332.043151 178.401542 
L 345.276353 178.662281 
L 358.509554 171.771156 
L 371.742756 178.199533 
" clip-path="url(#pa0ed3c1506)" style="fill: none; stroke-dasharray: 5.55,2.4; stroke-dashoffset: 0; stroke: #2ca02c; stroke-width: 1.5"/>
    <defs>
     <path id="mf40955a63e" d="M 0 3 
C 0.795609 3 1.55874 2.683901 2.12132 2.12132 
C 2.683901 1.55874 3 0.795609 3 0 
C 3 -0.795609 2.683901 -1.55874 2.12132 -2.12132 
C 1.55874 -2.683901 0.795609 -3 0 -3 
C -0.795609 -3 -1.55874 -2.683901 -2.12132 -2.12132 
C -2.683901 -1.55874 -3 -0.795609 -3 0 
C -3 0.795609 -2.683901 1.55874 -2.12132 2.12132 
C -1.55874 2.683901 -0.795609 3 0 3 
z
" style="stroke: #2ca02c"/>
    </defs>
    <g clip-path="url(#pa0ed3c1506)">
     <use xlink:href="#mf40955a63e" x="67.379119" y="175.972173" style="fill: #2ca02c; stroke: #2ca02c"/>
     <use xlink:href="#mf40955a63e" x="80.612321" y="176.244605" style="fill: #2ca02c; stroke: #2ca02c"/>
     <use xlink:href="#mf40955a63e" x="93.845522" y="208.909801" style="fill: #2ca02c; stroke: #2ca02c"/>
     <use xlink:href="#mf40955a63e" x="107.078724" y="177.531466" style="fill: #2ca02c; stroke: #2ca02c"/>
     <use xlink:href="#mf40955a63e" x="120.311926" y="186.536673" style="fill: #2ca02c; stroke: #2ca02c"/>
     <use xlink:href="#mf40955a63e" x="133.545127" y="197.926281" style="fill: #2ca02c; stroke: #2ca02c"/>
     <use xlink:href="#mf40955a63e" x="146.778329" y="179.317581" style="fill: #2ca02c; stroke: #2ca02c"/>
     <use xlink:href="#mf40955a63e" x="160.01153" y="184.063097" style="fill: #2ca02c; stroke: #2ca02c"/>
     <use xlink:href="#mf40955a63e" x="173.244732" y="187.67073" style="fill: #2ca02c; stroke: #2ca02c"/>
     <use xlink:href="#mf40955a63e" x="186.477934" y="192.03332" style="fill: #2ca02c; stroke: #2ca02c"/>
     <use xlink:href="#mf40955a63e" x="199.711135" y="179.767378" style="fill: #2ca02c; stroke: #2ca02c"/>
     <use xlink:href="#mf40955a63e" x="212.944337" y="177.39316" style="fill: #2ca02c; stroke: #2ca02c"/>
     <use xlink:href="#mf40955a63e" x="226.177538" y="201.399002" style="fill: #2ca02c; stroke: #2ca02c"/>
     <use xlink:href="#mf40955a63e" x="239.41074" y="177.875559" style="fill: #2ca02c; stroke: #2ca02c"/>
     <use xlink:href="#mf40955a63e" x="252.643941" y="175.851819" style="fill: #2ca02c; stroke: #2ca02c"/>
     <use xlink:href="#mf40955a63e" x="265.877143" y="197.481854" style="fill: #2ca02c; stroke: #2ca02c"/>
     <use xlink:href="#mf40955a63e" x="279.110345" y="168.269889" style="fill: #2ca02c; stroke: #2ca02c"/>
     <use xlink:href="#mf40955a63e" x="292.343546" y="179.808329" style="fill: #2ca02c; stroke: #2ca02c"/>
     <use xlink:href="#mf40955a63e" x="305.576748" y="194.152921" style="fill: #2ca02c; stroke: #2ca02c"/>
     <use xlink:href="#mf40955a63e" x="318.809949" y="168.230062" style="fill: #2ca02c; stroke: #2ca02c"/>
     <use xlink:href="#mf40955a63e" x="332.043151" y="178.401542" style="fill: #2ca02c; stroke: #2ca02c"/>
     <use xlink:href="#mf40955a63e" x="345.276353" y="178.662281" style="fill: #2ca02c; stroke: #2ca02c"/>
     <use xlink:href="#mf40955a63e" x="358.509554" y="171.771156" style="fill: #2ca02c; stroke: #2ca02c"/>
     <use xlink:href="#mf40955a63e" x="371.742756" y="178.199533" style="fill: #2ca02c; stroke: #2ca02c"/>
    </g>
   </g>
   <g id="line2d_19">
    <path d="M 67.379119 175.972247 
L 80.612321 188.921002 
L 93.845522 205.728018 
L 107.078724 188.229439 
L 120.311926 190.933268 
L 133.545127 191.553476 
L 146.778329 202.674437 
L 160.01153 186.365683 
L 173.244732 184.253912 
L 186.477934 206.184913 
L 199.711135 187.951576 
L 212.944337 178.997799 
L 226.177538 214.756364 
L 239.41074 182.665831 
L 252.643941 186.737318 
L 265.877143 201.885918 
L 279.110345 185.484701 
L 292.343546 194.139634 
L 305.576748 181.546423 
L 318.809949 204.598378 
L 332.043151 185.976054 
L 345.276353 183.081201 
L 358.509554 206.410052 
L 371.742756 183.406325 
" clip-path="url(#pa0ed3c1506)" style="fill: none; stroke-dasharray: 5.55,2.4; stroke-dashoffset: 0; stroke: #d62728; stroke-width: 1.5"/>
    <defs>
     <path id="ma8252045fc" d="M 0 3 
C 0.795609 3 1.55874 2.683901 2.12132 2.12132 
C 2.683901 1.55874 3 0.795609 3 0 
C 3 -0.795609 2.683901 -1.55874 2.12132 -2.12132 
C 1.55874 -2.683901 0.795609 -3 0 -3 
C -0.795609 -3 -1.55874 -2.683901 -2.12132 -2.12132 
C -2.683901 -1.55874 -3 -0.795609 -3 0 
C -3 0.795609 -2.683901 1.55874 -2.12132 2.12132 
C -1.55874 2.683901 -0.795609 3 0 3 
z
" style="stroke: #d62728"/>
    </defs>
    <g clip-path="url(#pa0ed3c1506)">
     <use xlink:href="#ma8252045fc" x="67.379119" y="175.972247" style="fill: #d62728; stroke: #d62728"/>
     <use xlink:href="#ma8252045fc" x="80.612321" y="188.921002" style="fill: #d62728; stroke: #d62728"/>
     <use xlink:href="#ma8252045fc" x="93.845522" y="205.728018" style="fill: #d62728; stroke: #d62728"/>
     <use xlink:href="#ma8252045fc" x="107.078724" y="188.229439" style="fill: #d62728; stroke: #d62728"/>
     <use xlink:href="#ma8252045fc" x="120.311926" y="190.933268" style="fill: #d62728; stroke: #d62728"/>
     <use xlink:href="#ma8252045fc" x="133.545127" y="191.553476" style="fill: #d62728; stroke: #d62728"/>
     <use xlink:href="#ma8252045fc" x="146.778329" y="202.674437" style="fill: #d62728; stroke: #d62728"/>
     <use xlink:href="#ma8252045fc" x="160.01153" y="186.365683" style="fill: #d62728; stroke: #d62728"/>
     <use xlink:href="#ma8252045fc" x="173.244732" y="184.253912" style="fill: #d62728; stroke: #d62728"/>
     <use xlink:href="#ma8252045fc" x="186.477934" y="206.184913" style="fill: #d62728; stroke: #d62728"/>
     <use xlink:href="#ma8252045fc" x="199.711135" y="187.951576" style="fill: #d62728; stroke: #d62728"/>
     <use xlink:href="#ma8252045fc" x="212.944337" y="178.997799" style="fill: #d62728; stroke: #d62728"/>
     <use xlink:href="#ma8252045fc" x="226.177538" y="214.756364" style="fill: #d62728; stroke: #d62728"/>
     <use xlink:href="#ma8252045fc" x="239.41074" y="182.665831" style="fill: #d62728; stroke: #d62728"/>
     <use xlink:href="#ma8252045fc" x="252.643941" y="186.737318" style="fill: #d62728; stroke: #d62728"/>
     <use xlink:href="#ma8252045fc" x="265.877143" y="201.885918" style="fill: #d62728; stroke: #d62728"/>
     <use xlink:href="#ma8252045fc" x="279.110345" y="185.484701" style="fill: #d62728; stroke: #d62728"/>
     <use xlink:href="#ma8252045fc" x="292.343546" y="194.139634" style="fill: #d62728; stroke: #d62728"/>
     <use xlink:href="#ma8252045fc" x="305.576748" y="181.546423" style="fill: #d62728; stroke: #d62728"/>
     <use xlink:href="#ma8252045fc" x="318.809949" y="204.598378" style="fill: #d62728; stroke: #d62728"/>
     <use xlink:href="#ma8252045fc" x="332.043151" y="185.976054" style="fill: #d62728; stroke: #d62728"/>
     <use xlink:href="#ma8252045fc" x="345.276353" y="183.081201" style="fill: #d62728; stroke: #d62728"/>
     <use xlink:href="#ma8252045fc" x="358.509554" y="206.410052" style="fill: #d62728; stroke: #d62728"/>
     <use xlink:href="#ma8252045fc" x="371.742756" y="183.406325" style="fill: #d62728; stroke: #d62728"/>
    </g>
   </g>
   <g id="patch_3">
    <path d="M 52.160938 224.64 
L 52.160938 7.2 
" style="fill: none; stroke: #000000; stroke-width: 0.8; stroke-linejoin: miter; stroke-linecap: square"/>
   </g>
   <g id="patch_4">
    <path d="M 386.960938 224.64 
L 386.960938 7.2 
" style="fill: none; stroke: #000000; stroke-width: 0.8; stroke-linejoin: miter; stroke-linecap: square"/>
   </g>
   <g id="patch_5">
    <path d="M 52.160938 224.64 
L 386.960938 224.64 
" style="fill: none; stroke: #000000; stroke-width: 0.8; stroke-linejoin: miter; stroke-linecap: square"/>
   </g>
   <g id="patch_6">
    <path d="M 52.160938 7.2 
L 386.960938 7.2 
" style="fill: none; stroke: #000000; stroke-width: 0.8; stroke-linejoin: miter; stroke-linecap: square"/>
   </g>
   <g id="legend_1">
    <g id="patch_7">
     <path d="M 59.160938 73.9125 
L 125.33125 73.9125 
Q 127.33125 73.9125 127.33125 71.9125 
L 127.33125 14.2 
Q 127.33125 12.2 125.33125 12.2 
L 59.160938 12.2 
Q 57.160938 12.2 57.160938 14.2 
L 57.160938 71.9125 
Q 57.160938 73.9125 59.160938 73.9125 
z
" style="fill: #ffffff; opacity: 0.8; stroke: #cccccc; stroke-linejoin: miter"/>
    </g>
    <g id="line2d_20">
     <path d="M 61.160938 20.298438 
L 71.160938 20.298438 
L 81.160938 20.298438 
" style="fill: none; stroke-dasharray: 5.55,2.4; stroke-dashoffset: 0; stroke: #1f77b4; stroke-width: 1.5"/>
     <g>
      <use xlink:href="#m94e05660d7" x="71.160938" y="20.298438" style="fill: #1f77b4; stroke: #1f77b4"/>
     </g>
    </g>
    <g id="text_18">
     <!-- W=0.2 -->
     <g transform="translate(89.160938 23.798438)scale(0.1 -0.1)">
      <defs>
       <path id="DejaVuSans-57" d="M 213 4666 
L 850 4666 
L 1831 722 
L 2809 4666 
L 3519 4666 
L 4500 722 
L 5478 4666 
L 6119 4666 
L 4947 0 
L 4153 0 
L 3169 4050 
L 2175 0 
L 1381 0 
L 213 4666 
z
" transform="scale(0.015625)"/>
       <path id="DejaVuSans-3d" d="M 678 2906 
L 4684 2906 
L 4684 2381 
L 678 2381 
L 678 2906 
z
M 678 1631 
L 4684 1631 
L 4684 1100 
L 678 1100 
L 678 1631 
z
" transform="scale(0.015625)"/>
      </defs>
      <use xlink:href="#DejaVuSans-57"/>
      <use xlink:href="#DejaVuSans-3d" x="98.876953"/>
      <use xlink:href="#DejaVuSans-30" x="182.666016"/>
      <use xlink:href="#DejaVuSans-2e" x="246.289062"/>
      <use xlink:href="#DejaVuSans-32" x="278.076172"/>
     </g>
    </g>
    <g id="line2d_21">
     <path d="M 61.160938 34.976563 
L 71.160938 34.976563 
L 81.160938 34.976563 
" style="fill: none; stroke-dasharray: 5.55,2.4; stroke-dashoffset: 0; stroke: #ff7f0e; stroke-width: 1.5"/>
     <g>
      <use xlink:href="#m8c683bdcda" x="71.160938" y="34.976563" style="fill: #ff7f0e; stroke: #ff7f0e"/>
     </g>
    </g>
    <g id="text_19">
     <!-- W=2 -->
     <g transform="translate(89.160938 38.476563)scale(0.1 -0.1)">
      <use xlink:href="#DejaVuSans-57"/>
      <use xlink:href="#DejaVuSans-3d" x="98.876953"/>
      <use xlink:href="#DejaVuSans-32" x="182.666016"/>
     </g>
    </g>
    <g id="line2d_22">
     <path d="M 61.160938 49.654688 
L 71.160938 49.654688 
L 81.160938 49.654688 
" style="fill: none; stroke-dasharray: 5.55,2.4; stroke-dashoffset: 0; stroke: #2ca02c; stroke-width: 1.5"/>
     <g>
      <use xlink:href="#mf40955a63e" x="71.160938" y="49.654688" style="fill: #2ca02c; stroke: #2ca02c"/>
     </g>
    </g>
    <g id="text_20">
     <!-- W=4 -->
     <g transform="translate(89.160938 53.154688)scale(0.1 -0.1)">
      <use xlink:href="#DejaVuSans-57"/>
      <use xlink:href="#DejaVuSans-3d" x="98.876953"/>
      <use xlink:href="#DejaVuSans-34" x="182.666016"/>
     </g>
    </g>
    <g id="line2d_23">
     <path d="M 61.160938 64.332813 
L 71.160938 64.332813 
L 81.160938 64.332813 
" style="fill: none; stroke-dasharray: 5.55,2.4; stroke-dashoffset: 0; stroke: #d62728; stroke-width: 1.5"/>
     <g>
      <use xlink:href="#ma8252045fc" x="71.160938" y="64.332813" style="fill: #d62728; stroke: #d62728"/>
     </g>
    </g>
    <g id="text_21">
     <!-- W=8 -->
     <g transform="translate(89.160938 67.832813)scale(0.1 -0.1)">
      <use xlink:href="#DejaVuSans-57"/>
      <use xlink:href="#DejaVuSans-3d" x="98.876953"/>
      <use xlink:href="#DejaVuSans-38" x="182.666016"/>
     </g>
    </g>
   </g>
  </g>
 </g>
 <defs>
  <clipPath id="pa0ed3c1506">
   <rect x="52.160938" y="7.2" width="334.8" height="217.44"/>
  </clipPath>
 </defs>
</svg>
