<?xml version="1.0" encoding="utf-8" standalone="no"?>
<!DOCTYPE svg PUBLIC "-//W3C//DTD SVG 1.1//EN"
  "http://www.w3.org/Graphics/SVG/1.1/DTD/svg11.dtd">
<svg xmlns:xlink="http://www.w3.org/1999/xlink" width="226.044169pt" height="123.482399pt" viewBox="0 0 226.044169 123.482399" xmlns="http://www.w3.org/2000/svg" version="1.1">
 <metadata>
  <rdf:RDF xmlns:dc="http://purl.org/dc/elements/1.1/" xmlns:cc="http://creativecommons.org/ns#" xmlns:rdf="http://www.w3.org/1999/02/22-rdf-syntax-ns#">
   <cc:Work>
    <dc:type rdf:resource="http://purl.org/dc/dcmitype/StillImage"/>
    <dc:date>2022-06-11T10:56:45.186701</dc:date>
    <dc:format>image/svg+xml</dc:format>
    <dc:creator>
     <cc:Agent>
      <dc:title>Matplotlib v3.5.1, https://matplotlib.org/</dc:title>
     </cc:Agent>
    </dc:creator>
   </cc:Work>
  </rdf:RDF>
 </metadata>
 <defs>
  <style type="text/css">*{stroke-linejoin: round; stroke-linecap: butt}</style>
 </defs>
 <g id="figure_1">
  <g id="patch_1">
   <path d="M 0 123.482399 
L 226.044169 123.482399 
L 226.044169 0 
L 0 0 
z
" style="fill: #ffffff"/>
  </g>
  <g id="axes_1">
   <g id="line2d_1">
    <path d="M 73.400971 43.5608 
L 214.29907 43.5608 
" clip-path="url(#p3430b74401)" style="fill: none; stroke: #000000; stroke-width: 2; stroke-linecap: square"/>
   </g>
   <g id="line2d_2">
    <path d="M 73.400971 89.011799 
L 214.29907 89.011799 
" clip-path="url(#p3430b74401)" style="fill: none; stroke: #000000; stroke-width: 2; stroke-linecap: square"/>
   </g>
   <g id="patch_2">
    <path d="M 83.172936 58.332374 
L 112.716086 58.332374 
L 112.716086 28.789225 
L 83.172936 28.789225 
z
" clip-path="url(#p3430b74401)" style="fill: #bb8bff; stroke: #bb8bff; stroke-width: 1.5; stroke-linejoin: miter"/>
   </g>
   <g id="patch_3">
    <path d="M 83.172936 103.783374 
L 112.716086 103.783374 
L 112.716086 74.240224 
L 83.172936 74.240224 
z
" clip-path="url(#p3430b74401)" style="fill: #bb8bff; stroke: #bb8bff; stroke-width: 1.5; stroke-linejoin: miter"/>
   </g>
   <g id="patch_4">
    <path d="M 128.623936 103.783374 
L 158.167085 103.783374 
L 158.167085 28.789225 
L 128.623936 28.789225 
z
" clip-path="url(#p3430b74401)" style="fill: #bb8bff; stroke: #bb8bff; stroke-width: 1.5; stroke-linejoin: miter"/>
   </g>
   <g id="patch_5">
    <path d="M 174.074935 58.332374 
L 203.618085 58.332374 
L 203.618085 28.789225 
L 174.074935 28.789225 
z
" clip-path="url(#p3430b74401)" style="fill: #bb8bff; stroke: #bb8bff; stroke-width: 1.5; stroke-linejoin: miter"/>
   </g>
   <g id="patch_6">
    <path d="M 174.074935 103.783374 
L 203.618085 103.783374 
L 203.618085 74.240224 
L 174.074935 74.240224 
z
" clip-path="url(#p3430b74401)" style="fill: #bb8bff; stroke: #bb8bff; stroke-width: 1.5; stroke-linejoin: miter"/>
   </g>
   <g id="text_1">
    <g clip-path="url(#p3430b74401)">
     <!-- ${q2}_{0}$ -->
     <g transform="translate(35.710772 48.011776)scale(0.1625 -0.1625)">
      <defs>
       <path id="DejaVuSans-Oblique-71" d="M 2669 525 
Q 2438 222 2123 65 
Q 1809 -91 1428 -91 
Q 897 -91 595 267 
Q 294 625 294 1253 
Q 294 1759 480 2231 
Q 666 2703 1013 3078 
Q 1238 3322 1530 3453 
Q 1822 3584 2144 3584 
Q 2531 3584 2781 3431 
Q 3031 3278 3144 2969 
L 3244 3494 
L 3822 3494 
L 2888 -1319 
L 2309 -1319 
L 2669 525 
z
M 891 1338 
Q 891 875 1084 633 
Q 1278 391 1644 391 
Q 2188 391 2572 911 
Q 2956 1431 2956 2175 
Q 2956 2625 2757 2864 
Q 2559 3103 2188 3103 
Q 1916 3103 1684 2976 
Q 1453 2850 1281 2606 
Q 1100 2350 995 2006 
Q 891 1663 891 1338 
z
" transform="scale(0.015625)"/>
       <path id="DejaVuSans-32" d="M 1228 531 
L 3431 531 
L 3431 0 
L 469 0 
L 469 531 
Q 828 903 1448 1529 
Q 2069 2156 2228 2338 
Q 2531 2678 2651 2914 
Q 2772 3150 2772 3378 
Q 2772 3750 2511 3984 
Q 2250 4219 1831 4219 
Q 1534 4219 1204 4116 
Q 875 4013 500 3803 
L 500 4441 
Q 881 4594 1212 4672 
Q 1544 4750 1819 4750 
Q 2544 4750 2975 4387 
Q 3406 4025 3406 3419 
Q 3406 3131 3298 2873 
Q 3191 2616 2906 2266 
Q 2828 2175 2409 1742 
Q 1991 1309 1228 531 
z
" transform="scale(0.015625)"/>
       <path id="DejaVuSans-30" d="M 2034 4250 
Q 1547 4250 1301 3770 
Q 1056 3291 1056 2328 
Q 1056 1369 1301 889 
Q 1547 409 2034 409 
Q 2525 409 2770 889 
Q 3016 1369 3016 2328 
Q 3016 3291 2770 3770 
Q 2525 4250 2034 4250 
z
M 2034 4750 
Q 2819 4750 3233 4129 
Q 3647 3509 3647 2328 
Q 3647 1150 3233 529 
Q 2819 -91 2034 -91 
Q 1250 -91 836 529 
Q 422 1150 422 2328 
Q 422 3509 836 4129 
Q 1250 4750 2034 4750 
z
" transform="scale(0.015625)"/>
      </defs>
      <use xlink:href="#DejaVuSans-Oblique-71" transform="translate(0 0.78125)"/>
      <use xlink:href="#DejaVuSans-32" transform="translate(63.476562 0.78125)"/>
      <use xlink:href="#DejaVuSans-30" transform="translate(128.056641 -15.625)scale(0.7)"/>
     </g>
    </g>
   </g>
   <g id="text_2">
    <g clip-path="url(#p3430b74401)">
     <!-- ${q2}_{1}$ -->
     <g transform="translate(35.710772 93.462775)scale(0.1625 -0.1625)">
      <defs>
       <path id="DejaVuSans-31" d="M 794 531 
L 1825 531 
L 1825 4091 
L 703 3866 
L 703 4441 
L 1819 4666 
L 2450 4666 
L 2450 531 
L 3481 531 
L 3481 0 
L 794 0 
L 794 531 
z
" transform="scale(0.015625)"/>
      </defs>
      <use xlink:href="#DejaVuSans-Oblique-71" transform="translate(0 0.78125)"/>
      <use xlink:href="#DejaVuSans-32" transform="translate(63.476562 0.78125)"/>
      <use xlink:href="#DejaVuSans-31" transform="translate(128.056641 -15.625)scale(0.7)"/>
     </g>
    </g>
   </g>
   <g id="text_3">
    <g clip-path="url(#p3430b74401)">
     <!-- $-$$\pi$/2 -->
     <g transform="translate(88.424511 54.631244)scale(0.08 -0.08)">
      <defs>
       <path id="DejaVuSans-2212" d="M 678 2272 
L 4684 2272 
L 4684 1741 
L 678 1741 
L 678 2272 
z
" transform="scale(0.015625)"/>
       <path id="DejaVuSans-Oblique-3c0" d="M 584 3500 
L 3938 3500 
L 3825 2925 
L 3384 2925 
L 2966 775 
Q 2922 550 2981 450 
Q 3038 353 3209 353 
Q 3256 353 3325 363 
Q 3397 369 3419 372 
L 3338 -44 
Q 3222 -84 3103 -103 
Q 2981 -122 2866 -122 
Q 2491 -122 2388 81 
Q 2284 288 2391 838 
L 2797 2925 
L 1506 2925 
L 938 0 
L 350 0 
L 919 2925 
L 472 2925 
L 584 3500 
z
" transform="scale(0.015625)"/>
       <path id="DejaVuSans-2f" d="M 1625 4666 
L 2156 4666 
L 531 -594 
L 0 -594 
L 1625 4666 
z
" transform="scale(0.015625)"/>
      </defs>
      <use xlink:href="#DejaVuSans-2212" transform="translate(0 0.78125)"/>
      <use xlink:href="#DejaVuSans-Oblique-3c0" transform="translate(83.789062 0.78125)"/>
      <use xlink:href="#DejaVuSans-2f" transform="translate(143.994141 0.78125)"/>
      <use xlink:href="#DejaVuSans-32" transform="translate(174.060547 0.78125)"/>
     </g>
    </g>
   </g>
   <g id="text_4">
    <g clip-path="url(#p3430b74401)">
     <!-- $\mathrm{R_X}$ -->
     <g transform="translate(90.014511 42.716515)scale(0.13 -0.13)">
      <defs>
       <path id="DejaVuSans-52" d="M 2841 2188 
Q 3044 2119 3236 1894 
Q 3428 1669 3622 1275 
L 4263 0 
L 3584 0 
L 2988 1197 
Q 2756 1666 2539 1819 
Q 2322 1972 1947 1972 
L 1259 1972 
L 1259 0 
L 628 0 
L 628 4666 
L 2053 4666 
Q 2853 4666 3247 4331 
Q 3641 3997 3641 3322 
Q 3641 2881 3436 2590 
Q 3231 2300 2841 2188 
z
M 1259 4147 
L 1259 2491 
L 2053 2491 
Q 2509 2491 2742 2702 
Q 2975 2913 2975 3322 
Q 2975 3731 2742 3939 
Q 2509 4147 2053 4147 
L 1259 4147 
z
" transform="scale(0.015625)"/>
       <path id="DejaVuSans-58" d="M 403 4666 
L 1081 4666 
L 2241 2931 
L 3406 4666 
L 4084 4666 
L 2584 2425 
L 4184 0 
L 3506 0 
L 2194 1984 
L 872 0 
L 191 0 
L 1856 2491 
L 403 4666 
z
" transform="scale(0.015625)"/>
      </defs>
      <use xlink:href="#DejaVuSans-52" transform="translate(0 0.09375)"/>
      <use xlink:href="#DejaVuSans-58" transform="translate(70.439453 -16.3125)scale(0.7)"/>
     </g>
    </g>
   </g>
   <g id="text_5">
    <g clip-path="url(#p3430b74401)">
     <!-- $-$$\pi$/2 -->
     <g transform="translate(88.424511 100.082244)scale(0.08 -0.08)">
      <use xlink:href="#DejaVuSans-2212" transform="translate(0 0.78125)"/>
      <use xlink:href="#DejaVuSans-Oblique-3c0" transform="translate(83.789062 0.78125)"/>
      <use xlink:href="#DejaVuSans-2f" transform="translate(143.994141 0.78125)"/>
      <use xlink:href="#DejaVuSans-32" transform="translate(174.060547 0.78125)"/>
     </g>
    </g>
   </g>
   <g id="text_6">
    <g clip-path="url(#p3430b74401)">
     <!-- $\mathrm{R_X}$ -->
     <g transform="translate(90.014511 88.167514)scale(0.13 -0.13)">
      <use xlink:href="#DejaVuSans-52" transform="translate(0 0.09375)"/>
      <use xlink:href="#DejaVuSans-58" transform="translate(70.439453 -16.3125)scale(0.7)"/>
     </g>
    </g>
   </g>
   <g id="text_7">
    <g clip-path="url(#p3430b74401)">
     <!-- 0 -->
     <g transform="translate(131.805506 47.147987)scale(0.13 -0.13)">
      <use xlink:href="#DejaVuSans-30"/>
     </g>
    </g>
   </g>
   <g id="text_8">
    <g clip-path="url(#p3430b74401)">
     <!-- 1 -->
     <g transform="translate(131.805506 92.598986)scale(0.13 -0.13)">
      <use xlink:href="#DejaVuSans-31"/>
     </g>
    </g>
   </g>
   <g id="text_9">
    <g clip-path="url(#p3430b74401)">
     <!-- t -->
     <g transform="translate(146.826995 76.220469)scale(0.08 -0.08)">
      <defs>
       <path id="DejaVuSans-74" d="M 1172 4494 
L 1172 3500 
L 2356 3500 
L 2356 3053 
L 1172 3053 
L 1172 1153 
Q 1172 725 1289 603 
Q 1406 481 1766 481 
L 2356 481 
L 2356 0 
L 1766 0 
Q 1100 0 847 248 
Q 594 497 594 1153 
L 594 3053 
L 172 3053 
L 172 3500 
L 594 3500 
L 594 4494 
L 1172 4494 
z
" transform="scale(0.015625)"/>
      </defs>
      <use xlink:href="#DejaVuSans-74"/>
     </g>
    </g>
   </g>
   <g id="text_10">
    <g clip-path="url(#p3430b74401)">
     <!-- ZZ -->
     <g transform="translate(139.49012 62.601327)scale(0.13 -0.13)">
      <defs>
       <path id="DejaVuSans-5a" d="M 359 4666 
L 4025 4666 
L 4025 4184 
L 1075 531 
L 4097 531 
L 4097 0 
L 288 0 
L 288 481 
L 3238 4134 
L 359 4134 
L 359 4666 
z
" transform="scale(0.015625)"/>
      </defs>
      <use xlink:href="#DejaVuSans-5a"/>
      <use xlink:href="#DejaVuSans-5a" x="68.505859"/>
     </g>
    </g>
   </g>
   <g id="text_11">
    <g clip-path="url(#p3430b74401)">
     <!-- $\pi$/2 -->
     <g transform="translate(182.68651 54.631244)scale(0.08 -0.08)">
      <use xlink:href="#DejaVuSans-Oblique-3c0" transform="translate(0 0.78125)"/>
      <use xlink:href="#DejaVuSans-2f" transform="translate(60.205078 0.78125)"/>
      <use xlink:href="#DejaVuSans-32" transform="translate(90.271484 0.78125)"/>
     </g>
    </g>
   </g>
   <g id="text_12">
    <g clip-path="url(#p3430b74401)">
     <!-- $\mathrm{R_X}$ -->
     <g transform="translate(180.91651 42.716515)scale(0.13 -0.13)">
      <use xlink:href="#DejaVuSans-52" transform="translate(0 0.09375)"/>
      <use xlink:href="#DejaVuSans-58" transform="translate(70.439453 -16.3125)scale(0.7)"/>
     </g>
    </g>
   </g>
   <g id="text_13">
    <g clip-path="url(#p3430b74401)">
     <!-- $\pi$/2 -->
     <g transform="translate(182.68651 100.082244)scale(0.08 -0.08)">
      <use xlink:href="#DejaVuSans-Oblique-3c0" transform="translate(0 0.78125)"/>
      <use xlink:href="#DejaVuSans-2f" transform="translate(60.205078 0.78125)"/>
      <use xlink:href="#DejaVuSans-32" transform="translate(90.271484 0.78125)"/>
     </g>
    </g>
   </g>
   <g id="text_14">
    <g clip-path="url(#p3430b74401)">
     <!-- $\mathrm{R_X}$ -->
     <g transform="translate(180.91651 88.167514)scale(0.13 -0.13)">
      <use xlink:href="#DejaVuSans-52" transform="translate(0 0.09375)"/>
      <use xlink:href="#DejaVuSans-58" transform="translate(70.439453 -16.3125)scale(0.7)"/>
     </g>
    </g>
   </g>
  </g>
 </g>
 <defs>
  <clipPath id="p3430b74401">
   <rect x="7.2" y="7.2" width="211.644169" height="109.082399"/>
  </clipPath>
 </defs>
</svg>
